<?xml version="1.0" encoding="UTF-8"?>
<svg id="Layer_2" data-name="Layer 2" xmlns="http://www.w3.org/2000/svg" xmlns:xlink="http://www.w3.org/1999/xlink" viewBox="0 0 86 22">
  <defs>
    <style>
      .cls-1 {
        fill: url(#linear-gradient);
      }

      .cls-1, .cls-2, .cls-3, .cls-4, .cls-5, .cls-6, .cls-7, .cls-8, .cls-9 {
        stroke-width: 0px;
      }

      .cls-2 {
        fill: #010101;
      }

      .cls-3 {
        fill: url(#linear-gradient-5);
      }

      .cls-4 {
        fill: #fff;
      }

      .cls-5 {
        fill: url(#linear-gradient-2);
      }

      .cls-6 {
        fill: url(#radial-gradient-2);
      }

      .cls-7 {
        fill: url(#linear-gradient-3);
      }

      .cls-8 {
        fill: url(#radial-gradient);
      }

      .cls-9 {
        fill: url(#linear-gradient-4);
      }
    </style>
    <linearGradient id="linear-gradient" x1="1.16" y1="774.14" x2="11.84" y2="775.84" gradientTransform="translate(0 -758.14)" gradientUnits="userSpaceOnUse">
      <stop offset="0" stop-color="#94d9f4"/>
      <stop offset=".22" stop-color="#68a2d7"/>
      <stop offset=".87" stop-color="#243771"/>
    </linearGradient>
    <linearGradient id="linear-gradient-2" x1="6" y1="762.69" x2="12.41" y2="770.7" gradientTransform="translate(0 -758.14)" gradientUnits="userSpaceOnUse">
      <stop offset="0" stop-color="#94d9f4"/>
      <stop offset=".22" stop-color="#68a2d7"/>
      <stop offset=".88" stop-color="#243771"/>
    </linearGradient>
    <linearGradient id="linear-gradient-3" x1="19.68" y1="759.07" x2="15.98" y2="769.94" gradientTransform="translate(0 -758.14)" gradientUnits="userSpaceOnUse">
      <stop offset="0" stop-color="#94d9f4"/>
      <stop offset=".22" stop-color="#68a2d7"/>
      <stop offset=".84" stop-color="#243771"/>
    </linearGradient>
    <radialGradient id="radial-gradient" cx="-750.53" cy="715.12" fx="-750.53" fy="715.12" r="2.78" gradientTransform="translate(52.41 -1370.61) rotate(-37.05) scale(1.21 1.52) skewX(2.93)" gradientUnits="userSpaceOnUse">
      <stop offset=".33" stop-color="#fff"/>
      <stop offset=".78" stop-color="#f4f3fa"/>
      <stop offset=".99" stop-color="#c2daf2"/>
    </radialGradient>
    <linearGradient id="linear-gradient-4" x1="-215.46" y1="855.67" x2="-218.94" y2="858.01" gradientTransform="translate(105.2 -868.83) rotate(-9.73) scale(1.09 1)" gradientUnits="userSpaceOnUse">
      <stop offset="0" stop-color="#fff" stop-opacity=".06"/>
      <stop offset="1" stop-color="#fff" stop-opacity=".71"/>
    </linearGradient>
    <radialGradient id="radial-gradient-2" cx="-750.39" cy="692.99" fx="-750.39" fy="692.99" r="1.62" gradientTransform="translate(38.68 -1386.77) rotate(-37.05) scale(1.21 1.6) skewX(3.08)" gradientUnits="userSpaceOnUse">
      <stop offset=".19" stop-color="#64a0d6"/>
      <stop offset="1" stop-color="#160e3e"/>
    </radialGradient>
    <linearGradient id="linear-gradient-5" x1="18.98" y1="773.51" x2="17.37" y2="775.2" gradientTransform="translate(0 -758.14)" gradientUnits="userSpaceOnUse">
      <stop offset="0" stop-color="#fff" stop-opacity="0"/>
      <stop offset="1" stop-color="#fff" stop-opacity=".75"/>
    </linearGradient>
  </defs>
  <g id="Layer_1-2" data-name="Layer 1-2">
    <path class="cls-1" d="m5.2,15.3c-.2,0-.3.1-.3.3h0v2.9c0,.2.1.3.3.3h4.1c.2,0,.3-.1.3-.3v-2.9c0-.2-.1-.3-.3-.3,0,0-4.1,0-4.1,0Zm.1.9l.4.3.7.5-1.1,1v-1.8h0Zm.3,2.1l1.1-1.1.1.1c.1.1.2.1.4.1s.3,0,.4-.1l.1-.1,1.1,1.1h-3.2Zm3.5-.2l-1.1-1,1.1-.9v1.9h0Zm-1.8-1s-.1.1,0,0h-.1l-1.8-1.4h3.8l-1.9,1.4h0Zm6.1.7c-1.1.9-2.2,1.7-3.5,2.2s-2.7.7-4.1.4c-1.3-.3-2.5-1.1-3.5-2.1-.9-1-1.7-2.2-2.3-3.4.7.2,1.6.2,2.3,0,.8-.2,1.5-.5,2.2-.8,1.6-.6,3.3-.9,4.9-.4,1.5.5,2.7,1.7,3.6,3-.8.7-2,1-3,.8.4-.1.8-.2,1.1-.4,1.3-.6-.8-1.8-1.3-2.1-.7-.4-1.6-.5-2.4-.5-2,.1-3.8,1.3-5.8,1.4.3.7.9,1.4,1.5,1.9,1.4,1.2,3,1.9,5,1.8,1.9-.2,3.8-.7,5.3-1.8h0Z"/>
    <path class="cls-5" d="m8.6,8.9c.1.1.1.2.1.3s-.1.2-.1.3c-.1.1-.2.1-.3.1s-.2,0-.3-.1v-.4c0-.1,0-.2.1-.3s.2-.1.3-.1q.1.1.2.2h0Zm2.5.1s-.1-.1-.3-.2-.3-.2-.4-.2-.2-.1-.3-.1h-.2l-.1.1v1.1q0,.1-.1.1h-.7q0,.2,0,.3s0,.1.1.3c.1.1.1.3.1.3l.1.1c0,.1.1.1.2.1s.1,0,.2-.1l1.5-1.3c.1,0,.1-.1.1-.2q-.1-.1-.2-.3h0Zm.7.9l-1.8,1.6c-.2.1-.3.2-.5.2s-.4-.1-.5-.2l-1.6-1.8c-.1-.2-.2-.3-.2-.5s.1-.4.2-.5l1.8-1.6c.2-.1.3-.2.5-.2s.4.1.5.2l1.6,1.8c.1.2.2.3.2.5s-.1.3-.2.5h0Zm-.3-.6q0-.1-.1-.2l-1.6-1.8c0-.1-.1-.1-.2-.1s-.1,0-.2.1l-1.7,1.6c-.1,0-.1.1-.1.2s0,.1.1.2l1.6,1.8c0,.1.1.1.2.1s.1,0,.2-.1l1.8-1.6s0-.1,0-.2h0Zm2.3,3.4c.3-1.6.2-3.3-.5-4.7-.8-1.4-2.3-2.3-3.8-3-.7-.3-1.5-.6-2.1-1s-1.4-.9-1.7-1.6c-.4,1.3-.7,2.7-.7,4.1s.3,2.8,1.1,3.9c.8,1.2,1.9,2,3.2,2.6,1.3.5,2.7.8,4.1.8-1.9-.2-3.5-1.1-5-2.3-1.6-1.3-2.2-2.9-2.4-4.8-.2-.7-.1-1.7.2-2.4,1.5,1.3,3.6,1.7,5.1,3,.6.5,1.1,1.2,1.4,2,.2.6.9,2.9-.5,2.4-.4-.1-.8-.3-1.1-.5.6.9,1.7,1.5,2.7,1.5h0Z"/>
    <path class="cls-7" d="m16.7,6.6c0-.1.1-.1.2-.1l1.6.5c.1,0,.1.1.1.2s-.1.1-.2.1l-1.6-.5s-.1-.1-.1-.2Zm0,.6l1.6.5c.1,0,.2,0,.2-.1s0-.2-.1-.2l-1.6-.5c-.1,0-.2,0-.2.1s0,.2.1.2h0Zm1.7.8c0-.1,0-.2-.1-.2l-1.6-.5c-.1,0-.2,0-.2.1s0,.2.1.2l1.6.5c.1,0,.2-.1.2-.1Zm-.3,1.2l-2-.6c-.4-.1-.6-.5-.5-.9l.9-2.9c.1-.4.5-.6.9-.5l1,.3h0v.1l1,1.9h0l-.4,2.1c-.1.4-.5.6-.9.5h0Zm-1.8-1l2,.6c.2,0,.3,0,.4-.2h0l.5-1.7-.8-.2c-.4-.1-.6-.5-.5-.9l.2-.8-.8-.2c-.2,0-.3,0-.4.2l-.9,2.9c.1.1.2.2.3.3Zm4.8-3.6c-.1-.8-.3-1.6-.4-2.3,0-.8,0-1.6.4-2.3-1.3.4-2.6.9-3.8,1.6-1.1.8-2.1,1.8-2.7,3-.6,1.3-.6,2.7-.4,4.1s.8,2.7,1.5,3.9c-.9-1.6-1-3.6-.8-5.4.2-2,1.2-3.5,2.6-4.6.6-.5,1.4-.9,2.2-1.1-.3,2,.6,4,.3,5.9-.1.8-.4,1.6-.9,2.3-.4.5-1.9,2.3-2.3.9-.1-.4-.2-.8-.2-1.2-.4,1-.3,2.2.3,3.1,1.5-.6,2.9-1.6,3.6-3,.9-1.5.9-3.3.6-4.9h0Z"/>
    <g>
      <ellipse class="cls-2" cx="17.4" cy="17.52" rx="3.4" ry="4.8" transform="translate(-6.74 12.32) rotate(-33.03)"/>
      <path class="cls-8" d="m14.9,13.4c1.6-1,4-.1,5.5,2.1,1.4,2.2,1.3,4.8-.3,5.9-1.6,1-4,.1-5.5-2.1s-1.3-4.9.3-5.9Z"/>
      <path class="cls-9" d="m18.9,17c.5-.2,1-.5,1.4-.9l.2-.2c.1-.2-.2-.6-.4-.8l-.1-.1c-1.7-2-4-2.6-5.2-1.3-.9.9-1,2.5-.3,4.1,1.3.2,2.6,0,3.8-.5.2-.1.4-.2.6-.3h0Z"/>
      <path class="cls-6" d="m17.3,15c.7-.4,1.7,0,2.3.9.6.9.6,2.1-.1,2.5s-1.7,0-2.3-.9-.5-2.1.1-2.5Z"/>
      <path class="cls-3" d="m19.6,16c-.5-.7-1.3-1.1-1.8-.7-.5.3-.6,1.2-.1,2,0,0,0,.1.1.1,1.1-.5,1.8-1.3,1.8-1.4,0,.1,0,0,0,0h0Z"/>
      <ellipse class="cls-4" cx="17.7" cy="17.91" rx=".5" ry=".7" transform="translate(-7.46 16.83) rotate(-42.89)"/>
    </g>
    <g>
      <path class="cls-2" d="m26.4,20.1h3v1.8h-5.3v-9.4h2.3v7.6h0Z"/>
      <path class="cls-2" d="m37.9,14.4v7.5h-2.3v-1c-.2.3-.5.6-.9.8-.4.2-.8.3-1.3.3-.6,0-1.1-.1-1.5-.4s-.8-.6-1-1.1-.4-1-.4-1.7v-4.4h2.3v4.1c0,.5.1.9.4,1.2.3.3.6.4,1,.4s.8-.1,1.1-.4.4-.7.4-1.2v-4.1h2.2Z"/>
      <path class="cls-2" d="m51.3,15.2c.5.6.8,1.3.8,2.3v4.4h-2.3v-4.1c0-.5-.1-.9-.4-1.1-.3-.3-.6-.4-1.1-.4s-.8.1-1.1.4c-.1.3-.2.7-.2,1.2v4.1h-2.3v-4.1c0-.5-.1-.9-.4-1.1-.3-.3-.6-.4-1.1-.4s-.8.1-1.1.4-.4.6-.4,1.1v4.1h-2.3v-7.5h2.3v.9c.2-.3.5-.6.9-.7.4-.2.8-.3,1.3-.3.6,0,1.1.1,1.5.4.4.2.8.6,1,1,.3-.4.6-.7,1.1-1,.4-.3.9-.4,1.5-.4,1,0,1.7.2,2.3.8h0Z"/>
      <path class="cls-2" d="m60.7,18.7h-5.2c0,.5.2.8.4,1.1.3.2.6.4,1,.4.6,0,1-.2,1.2-.7h2.4c-.1.5-.4.9-.7,1.3s-.7.7-1.2.9c-.5.2-1,.3-1.6.3-.7,0-1.4-.2-2-.5s-1-.8-1.3-1.3c-.3-.6-.5-1.3-.5-2,0-.8.2-1.5.5-2,.3-.6.8-1,1.3-1.3.6-.3,1.2-.5,2-.5s1.4.2,1.9.5c.6.3,1,.7,1.3,1.3s.5,1.2.5,2c.1.1.1.3,0,.5h0Zm-2.3-1.2c0-.4-.1-.7-.4-.9-.3-.2-.6-.3-1-.3s-.7.1-1,.3c-.3.2-.4.5-.5,1h2.9v-.1Z"/>
      <path class="cls-2" d="m68.6,15.2c.5.6.8,1.3.8,2.3v4.4h-2.3v-4.1c0-.5-.1-.9-.4-1.2-.3-.3-.6-.4-1-.4s-.8.1-1,.4c-.3.3-.4.7-.4,1.2v4.1h-2.3v-7.5h2.3v1c.2-.3.5-.6.9-.8s.8-.3,1.3-.3c.9.1,1.6.3,2.1.9h0Z"/>
      <path class="cls-2" d="m79.7,20.3h-3.5l-.6,1.7h-2.4l3.4-9.4h2.7l3.4,9.4h-2.4l-.6-1.7h0Zm-.6-1.8l-1.2-3.5-1.2,3.4h2.4v.1Z"/>
      <path class="cls-2" d="m86,12.5v9.4h-2.3v-9.4h2.3Z"/>
    </g>
  </g>
</svg>